<svg width="12" height="11" viewBox="0 0 12 11" fill="none" xmlns="http://www.w3.org/2000/svg">
<path fill-rule="evenodd" clip-rule="evenodd" d="M0 5.49999C0 5.31213 0.0790175 5.13196 0.21967 4.99912C0.360322 4.86628 0.551088 4.79166 0.75 4.79166H9.44L6.22 1.75055C6.08752 1.61627 6.0154 1.43867 6.01882 1.25516C6.02225 1.07166 6.10097 0.896571 6.23838 0.766792C6.37579 0.637013 6.56118 0.562674 6.75548 0.559437C6.94978 0.556199 7.13783 0.624315 7.28 0.749435L11.78 4.99943C11.9205 5.13225 11.9993 5.31228 11.9993 5.49999C11.9993 5.6877 11.9205 5.86773 11.78 6.00055L7.28 10.2505C7.13783 10.3757 6.94978 10.4438 6.75548 10.4405C6.56118 10.4373 6.37579 10.363 6.23838 10.2332C6.10097 10.1034 6.02225 9.92832 6.01882 9.74482C6.0154 9.56131 6.08752 9.38371 6.22 9.24944L9.44 6.20832H0.75C0.551088 6.20832 0.360322 6.1337 0.21967 6.00086C0.0790175 5.86802 0 5.68785 0 5.49999Z" fill="#5B5B5B"/>
</svg>
