<svg width="25" height="25" viewBox="0 0 25 25" fill="none" xmlns="http://www.w3.org/2000/svg">
<path d="M4.0625 8.75C5.46875 5.46875 8.75 3.125 12.5 3.125C17.1875 3.125 20.9375 6.5625 21.7188 10.9375H24.8438C24.0625 4.84375 18.9062 0 12.5 0C7.8125 0 3.75 2.5 1.71875 6.40625L0 4.6875V10.9375H6.25L4.0625 8.75ZM25 14.0625H18.5938L20.9375 16.25C19.5312 19.5312 16.25 21.875 12.3438 21.875C7.8125 21.875 3.90625 18.4375 3.125 14.0625H0C0.78125 20.1562 6.09375 25 12.3438 25C17.0312 25 21.0938 22.3438 23.2812 18.5938L25 20.3125V14.0625Z" fill="#467C65" fill-opacity="0.75"/>
</svg>
