<svg width="26" height="24" viewBox="0 0 26 24" fill="none" xmlns="http://www.w3.org/2000/svg">
<path d="M19.9525 23.95C19.75 23.9497 19.5505 23.9004 19.3712 23.8062L13 20.4562L6.62873 23.8062C6.4223 23.9148 6.18961 23.9634 5.95699 23.9466C5.72437 23.9298 5.50109 23.8482 5.31239 23.7112C5.12369 23.5741 4.97711 23.387 4.8892 23.171C4.8013 22.9549 4.77559 22.7186 4.81498 22.4887L6.03123 15.3937L0.87748 10.3687C0.710717 10.2059 0.592797 9.99971 0.537035 9.77341C0.481273 9.54711 0.489891 9.30973 0.561914 9.08807C0.633938 8.86641 0.766499 8.6693 0.944628 8.519C1.12276 8.3687 1.33936 8.27119 1.56998 8.23749L8.69373 7.20249L11.8787 0.747487C11.9939 0.552619 12.1579 0.391137 12.3545 0.27896C12.5511 0.166784 12.7736 0.107788 13 0.107788C13.2263 0.107788 13.4488 0.166784 13.6454 0.27896C13.842 0.391137 14.006 0.552619 14.1212 0.747487L17.3062 7.20249L24.43 8.23749C24.6609 8.27101 24.8777 8.36848 25.0561 8.51887C25.2345 8.66925 25.3672 8.86655 25.4392 9.08844C25.5113 9.31033 25.5198 9.54796 25.4638 9.77444C25.4078 10.0009 25.2896 10.2072 25.1225 10.37L19.9687 15.3937L21.185 22.4887C21.2157 22.6682 21.2069 22.8522 21.1592 23.0279C21.1114 23.2036 21.0258 23.3667 20.9085 23.5059C20.7911 23.6451 20.6447 23.7569 20.4796 23.8336C20.3144 23.9104 20.1346 23.9501 19.9525 23.95Z" fill="#467C65"/>
</svg>
