<svg width="30" height="22" viewBox="0 0 30 22" fill="none" xmlns="http://www.w3.org/2000/svg">
<path d="M19.6875 11C18.4828 11 17.318 10.4621 16.4062 9.48594C15.5197 8.53379 14.9783 7.26406 14.8828 5.91172C14.7809 4.46914 15.2209 3.14258 16.1215 2.17578C17.0221 1.20898 18.2812 0.6875 19.6875 0.6875C21.0838 0.6875 22.3465 1.21836 23.2441 2.18281C24.1506 3.15664 24.5918 4.48086 24.4898 5.91113C24.392 7.26523 23.8512 8.53437 22.9664 9.48535C22.057 10.4621 20.8928 11 19.6875 11ZM27.4119 21.3125H11.9637C11.7153 21.3138 11.4699 21.2582 11.2464 21.1498C11.023 21.0414 10.8273 20.8832 10.6746 20.6873C10.5126 20.475 10.4007 20.2287 10.3473 19.9671C10.294 19.7054 10.3005 19.435 10.3664 19.1762C10.8598 17.1951 12.082 15.5521 13.9008 14.4254C15.515 13.4258 17.5699 12.875 19.6875 12.875C21.8467 12.875 23.8476 13.4023 25.4713 14.4014C27.2941 15.5223 28.5182 17.1746 29.0092 19.1797C29.0743 19.4387 29.0801 19.7091 29.0261 19.9706C28.9721 20.2322 28.8598 20.4782 28.6975 20.6902C28.5449 20.8852 28.3497 21.0426 28.1269 21.1505C27.904 21.2584 27.6595 21.3138 27.4119 21.3125ZM8.61327 11.2344C6.55136 11.2344 4.73847 9.31719 4.57031 6.96113C4.4871 5.7541 4.86328 4.63789 5.62499 3.81934C6.37851 3.00898 7.4414 2.5625 8.61327 2.5625C9.78515 2.5625 10.8398 3.01133 11.5975 3.82637C12.365 4.65137 12.74 5.76523 12.6521 6.9623C12.484 9.31777 10.6717 11.2344 8.61327 11.2344ZM12.4605 13.0771C11.4299 12.5732 10.0922 12.3213 8.61386 12.3213C6.88769 12.3213 5.21132 12.7713 3.89296 13.5881C2.39824 14.5156 1.39277 15.8662 0.986713 17.4969C0.92729 17.7314 0.92167 17.9764 0.970273 18.2134C1.01888 18.4504 1.12044 18.6734 1.26738 18.8656C1.4068 19.0446 1.58541 19.1892 1.78949 19.2884C1.99356 19.3875 2.21765 19.4385 2.44453 19.4375H8.94843C9.05821 19.4375 9.16449 19.3989 9.24876 19.3286C9.33303 19.2582 9.38994 19.1605 9.40956 19.0525C9.41601 19.0156 9.42421 18.9787 9.43359 18.9424C9.93046 16.9467 11.0947 15.2604 12.815 14.0311C12.8783 13.9854 12.9292 13.9248 12.9631 13.8545C12.997 13.7843 13.0128 13.7067 13.0092 13.6288C13.0055 13.5509 12.9824 13.4751 12.9421 13.4083C12.9018 13.3416 12.8454 13.286 12.7781 13.2465C12.6861 13.1926 12.5807 13.1357 12.4605 13.0771Z" fill="#5B5B5B"/>
</svg>
